# xmcd
#
# Track frame offsets: 
#        150
#        28592
#        45411
#        61674
#        82810
#        92194
#        116714
#        129109
#        148269
#        177051
#        193107
#
# Disc length: 2945 seconds
#
# Revision: 6
# Processed by: cddbd v1.5.2PL0 Copyright (c) Steve Scherf et al.
# Submitted via: ExactAudioCopy v0.90b4
#
DISCID=890b7f0b
DTITLE=Childish Gambino - Awaken, My Love!
DYEAR=2016
DGENRE=R&B
TTITLE0=Me And Your Mama
TTITLE1=Have Some Love
TTITLE2=Boogieman
TTITLE3=Zombies
TTITLE4=Riot
TTITLE5=Redbone
TTITLE6=California
TTITLE7=Terrified
TTITLE8=Baby Boy
TTITLE9=The Night Me And Your Mama Met
TTITLE10=Stand Tall
EXTD=
EXTT0=
EXTT1=
EXTT2=
EXTT3=
EXTT4=
EXTT5=
EXTT6=
EXTT7=
EXTT8=
EXTT9=
EXTT10=
PLAYORDER=
